<svg xmlns="http://www.w3.org/2000/svg" width="32" height="32" id="book">
  <path d="M-157.143 1071.62c-.413-.413-1.059-.431-1.449-.041l-12.672 12.672-1.408 1.408-1.408 1.407c-.78.78-.78 2.036 0 2.816l10.912 10.912a.498.498 0 0 0 .704 0 .498.498 0 0 0 0-.704l-.282-.282-10.63-10.63a.993.993 0 0 1 0-1.408.993.993 0 0 1 1.408 0l10.519 10.519.111.111.282.282a.498.498 0 0 0 .704 0l14.432-14.431c.39-.39.371-1.037-.042-1.45l-11.18-11.18z" style="fill:#fd0437;fill-opacity:1;stroke:none;stroke-width:1;stroke-linecap:round;stroke-linejoin:round;stroke-opacity:1" transform="rotate(-45 -1369.365 339.927)scale(1.00444)"></path>
  <path d="M-152.51 1085.158c-.412.256-.931.23-1.26-.098l-2.112-2.112-.704-.704-2.323 2.324-1.408-1.408 2.065-2.065c.43-.43.46-1.089.07-1.479l-.351-.352a.873.873 0 0 0-.204-.148c.218.39.143.913-.219 1.275l-.13.129-2.71 2.71.705.704 1.408 1.408-1.55 1.549-2.111-2.112c-.39-.39-1.05-.359-1.479.07l-.387.387a1.17 1.17 0 0 0-.169.218c.413-.255.932-.23 1.26.098l2.7 2.699.116.117 2.324-2.323 1.408 1.408-1.936 1.936-.13.13-.032.031h.003c-.398.43-.42 1.064-.04 1.444l.351.352c.061.06.13.108.203.149-.218-.39-.143-.914.219-1.275l.13-.13 2.71-2.71-.118-.117-1.995-1.995 1.55-1.548 2.111 2.112c.39.39 1.05.358 1.479-.07l.387-.388c.067-.068.12-.141.169-.218zm-5.941-2.456a.498.548 45 0 0-.74.035.498.548 45 0 0-.035.739.498.548 45 0 0 .74-.035.498.548 45 0 0 .035-.74zm2.112 2.112a.498.548 45 0 0-.74.035.498.548 45 0 0-.035.739.498.548 45 0 0 .74-.035.498.548 45 0 0 .035-.74zm-4.435.21a.498.548 45 0 0-.74.036.498.548 45 0 0-.035.739.498.548 45 0 0 .74-.035.498.548 45 0 0 .035-.74zm2.112 2.113a.498.548 45 0 0-.74.035.498.548 45 0 0-.035.739.498.548 45 0 0 .74-.035.498.548 45 0 0 .035-.74z" style="color:#000;font-style:normal;font-variant:normal;font-weight:400;font-stretch:normal;font-size:medium;line-height:normal;font-family:sans-serif;text-indent:0;text-align:start;text-decoration:none;text-decoration-line:none;text-decoration-style:solid;text-decoration-color:#000;letter-spacing:normal;word-spacing:normal;text-transform:none;direction:ltr;block-progression:tb;writing-mode:lr-tb;baseline-shift:baseline;text-anchor:start;white-space:normal;clip-rule:nonzero;display:inline;overflow:visible;visibility:visible;opacity:1;isolation:auto;mix-blend-mode:normal;color-interpolation:sRGB;color-interpolation-filters:linearRGB;solid-color:#000;solid-opacity:1;fill:#ffa920;fill-opacity:.96862745;fill-rule:evenodd;stroke:none;stroke-width:3;stroke-linecap:butt;stroke-linejoin:miter;stroke-miterlimit:4;stroke-dasharray:none;stroke-dashoffset:0;stroke-opacity:1;color-rendering:auto;image-rendering:auto;shape-rendering:auto;text-rendering:auto;enable-background:accumulate" transform="rotate(-45 -1369.365 339.927)scale(1.00444)"></path>
  <path d="M-157.184 1071.579a.993.993 0 0 0-1.408 0l-14.08 14.08a.993.993 0 0 0 0 1.407l1.408 1.408 15.488-15.488-1.408-1.408z" style="fill:#fd0437;fill-opacity:1;stroke:none;stroke-width:3;stroke-linecap:round;stroke-linejoin:round" transform="rotate(-45 -1369.365 339.927)scale(1.00444)"></path>
  <path d="m-171.968 1087.77 10.912 10.912-1.408 1.408-10.912-10.912a.993.993 0 0 1 0-1.408.993.993 0 0 1 1.408 0z" style="fill:#ececec;fill-opacity:1;stroke:none;stroke-width:1;stroke-linecap:round;stroke-linejoin:round;stroke-opacity:1" transform="rotate(-45 -1369.365 339.927)scale(1.00444)"></path>
</svg>
