<svg xmlns="http://www.w3.org/2000/svg" viewBox="0 0 512 512" id="kalasha">
  <path fill="#ffae36" d="M330.618 136.234a74.619 74.619 0 1 1-149.236 0C181.382 94.917 256 7.124 256 7.124s74.618 87.793 74.618 129.11Z"></path>
  <path fill="#ffa41f" d="M256 7.125s-6.19 7.286-15 18.636c21.787 28.073 59.618 81.052 59.618 110.473A74.788 74.788 0 0 1 241 209.532a74.663 74.663 0 0 0 89.618-73.298C330.618 94.917 256 7.124 256 7.124Z"></path>
  <path fill="#63ea86" d="M179.165 212.933a78.809 78.809 0 0 0-18.821-36.166c-23.858-25.718-57.05-25.32-62.736-25.159 7.397-5.076 35.825-23.288 72.146-17.297 38.855 6.409 71.162 37.943 82.162 80.194"></path>
  <path fill="#28e258" d="m221.735 213.853 30.181.652c-11-42.251-43.307-73.785-82.162-80.194a90.929 90.929 0 0 0-29.684.059c38.512 6.494 70.533 37.676 81.665 79.483Z"></path>
  <path fill="#63ea86" d="M332.835 212.933a78.809 78.809 0 0 1 18.821-36.166c23.858-25.718 57.05-25.32 62.736-25.159-7.397-5.076-35.825-23.288-72.146-17.297-38.855 6.409-71.162 37.943-82.162 80.194"></path>
  <path fill="#28e258" d="M359.363 133.16a108.39 108.39 0 0 1 21.327 8.451 3.783 3.783 0 0 1-1.31 7.112c-13.252 1.546-34.111 6.87-50.543 24.584a78.808 78.808 0 0 0-18.82 36.165l-48.825 1.056q-.585 1.972-1.108 3.977l72.751-1.572a78.809 78.809 0 0 1 18.821-36.166c23.858-25.718 57.05-25.32 62.736-25.159-6.188-4.246-27.098-17.675-55.029-18.448Z"></path>
  <path fill="#3ce568" d="M238.171 239.249a107.068 107.068 0 0 1 18.036-123.175c5.096 4.708 25.711 24.825 29.016 58.312 3.366 34.114-13.59 58.222-17.645 63.683l-29.407 1.18Z"></path>
  <path fill="#28e258" d="M285.223 174.386c-3.305-33.487-23.92-53.604-29.015-58.312a106.99 106.99 0 0 0-11.375 14.102 91.64 91.64 0 0 1 16.702 44.21c3.366 34.114-13.59 58.221-17.644 63.683l-6.19.249c.165.329.323.643.47.93l29.407-1.179c4.055-5.462 21.011-29.569 17.645-63.683Z"></path>
  <path fill="#ffe966" d="M404.74 369.43a102.245 102.245 0 0 1-2.08 16.75q-.735 3.615-1.74 7.16a104.31 104.31 0 0 1-6.33 16.77c-.08.19-.17.38-.26.57-.45.96-.93 1.91-1.42 2.86a112.792 112.792 0 0 1-9.96 15.84 120.938 120.938 0 0 1-15.12 16.7l-15.36 14.11c-12.28 11.29-29.38 17.69-47.26 17.69h-98.43c-17.87 0-34.97-6.4-47.25-17.69l-15.36-14.11a120.808 120.808 0 0 1-15.76-17.55 113.788 113.788 0 0 1-7.76-12.11c-1.31-2.36-2.54-4.76-3.67-7.19a105.873 105.873 0 0 1-5.9-15.89c-.67-2.37-1.25-4.75-1.75-7.16a103.197 103.197 0 0 1-2.07-16.75c-.06-1.38-.09-2.77-.09-4.15a106.013 106.013 0 0 1 18.64-59.51c.03-.04.05-.08.08-.12 1.06-1.59 2.18-3.15 3.34-4.69a120.56 120.56 0 0 1 9.12-10.74l35.16-36.82 5.2-5.45.06-.06h154.46l.06.06 5.21 5.45 35.15 36.82a118.902 118.902 0 0 1 9.11 10.75c.51.66 1 1.33 1.47 1.99q1.305 1.8 2.52 3.65a105.58 105.58 0 0 1 17.99 62.82Z"></path>
  <path fill="#ffe236" d="M386.75 306.61q-1.215-1.845-2.52-3.65c-.47-.66-.96-1.33-1.47-1.99a118.902 118.902 0 0 0-9.11-10.75L338.5 253.4l-5.21-5.45-.06-.06h-30l.06.06 5.21 5.45 35.15 36.82a118.902 118.902 0 0 1 9.11 10.75c.51.66 1 1.33 1.47 1.99q1.305 1.8 2.52 3.65a105.58 105.58 0 0 1 17.99 62.82 102.245 102.245 0 0 1-2.08 16.75q-.735 3.615-1.74 7.16a104.31 104.31 0 0 1-6.33 16.77c-.08.19-.17.38-.26.57-.45.96-.93 1.91-1.42 2.86a112.792 112.792 0 0 1-9.96 15.84 120.938 120.938 0 0 1-15.12 16.7l-15.36 14.11c-12.28 11.29-29.38 17.69-47.26 17.69h30c17.88 0 34.98-6.4 47.26-17.69l15.36-14.11a120.938 120.938 0 0 0 15.12-16.7 112.792 112.792 0 0 0 9.96-15.84c.49-.95.97-1.9 1.42-2.86.09-.19.18-.38.26-.57a104.31 104.31 0 0 0 6.33-16.77q1.005-3.54 1.74-7.16a102.245 102.245 0 0 0 2.08-16.75 105.58 105.58 0 0 0-17.99-62.82Z"></path>
  <path fill="#ff7c4e" d="M394.59 410.11c-.08.19-.17.38-.26.57-.45.96-.93 1.91-1.42 2.86a112.792 112.792 0 0 1-9.96 15.84q-18.57 5.325-37.49 9.04a115.274 115.274 0 0 0 7.49-9.04q3.405-4.53 6.29-9.3 17.835-4.23 35.35-9.97Z"></path>
  <path fill="#ffe236" d="M338.5 253.4a7.49 7.49 0 0 1-3.06 1.74q-10.155 2.91-20.44 5.07l-6.5-6.81-5.07-6.23q12.615-2.22 25.05-5.66a21.95 21.95 0 0 0 2.9 4.16l1.99 2.26a.234.234 0 0 1-.08.02Z"></path>
  <path fill="#ffe966" d="M332.36 217.67c-6.7 6.7-8.05 16.07-3.88 23.84a21.95 21.95 0 0 0 2.9 4.16l1.99 2.26a.234.234 0 0 1-.08.02 280.348 280.348 0 0 1-88.26 10.69 279.745 279.745 0 0 1-66.32-10.69.234.234 0 0 1-.08-.02c.66-.75 1.33-1.5 1.99-2.26a21.444 21.444 0 0 0 2.89-4.16c4.18-7.77 2.83-17.14-3.87-23.84l-9.85-9.86c-2.28-2.27-.42-5.82 3.05-5.82h166.31c3.48 0 5.34 3.55 3.06 5.82Z"></path>
  <path fill="#ffe236" d="M342.21 207.81c2.28-2.27.42-5.82-3.06-5.82H316.84c3.48 0 5.34 3.55 3.06 5.82-10.238 10.248-19.573 24.239-16.47 39.36-29.282 5.42-58.875 11.002-58.795 11.451.006.035.196.011.396.02a280.348 280.348 0 0 0 88.26-10.691.234.234 0 0 0 .08-.02l-1.99-2.26a21.95 21.95 0 0 1-2.9-4.16c-4.17-7.77-2.82-17.14 3.88-23.84Z"></path>
  <path fill="#ff8e66" d="M338.5 253.4a7.49 7.49 0 0 1-3.06 1.74 288.03 288.03 0 0 1-79.48 11.21q-5.61 0-11.22-.22a287.62 287.62 0 0 1-68.18-10.99 7.341 7.341 0 0 1-3.05-1.74l5.2-5.45a.234.234 0 0 1-.08-.02c.66-.75 1.33-1.5 1.99-2.26a21.444 21.444 0 0 0 2.89-4.16 269.815 269.815 0 0 0 29.3 6.38 271.149 271.149 0 0 0 32.52 3.25 272.791 272.791 0 0 0 53.86-3.25 272.77 272.77 0 0 0 29.29-6.38 21.95 21.95 0 0 0 2.9 4.16l1.99 2.26a.234.234 0 0 1-.08.02Z"></path>
  <path fill="#ff7c4e" d="M338.5 253.4a7.49 7.49 0 0 1-3.06 1.74q-10.155 2.91-20.44 5.07l-6.5-6.81-5.07-6.23q12.615-2.22 25.05-5.66a21.95 21.95 0 0 0 2.9 4.16l1.99 2.26a.234.234 0 0 1-.08.02Z"></path>
  <ellipse cx="256" cy="350.841" fill="#f66" rx="62.686" ry="62.848"></ellipse>
  <path fill="#ff4e4e" d="M256 287.993a62.648 62.648 0 0 0-15 1.825 62.889 62.889 0 0 1 0 122.047 62.827 62.827 0 1 0 15-123.872Z"></path>
  <path fill="#ffe966" d="M256 380.71h-22.311a7.5 7.5 0 0 1 0-15h14.81v-37.237a7.5 7.5 0 0 1 7.5-7.5h22.312a7.5 7.5 0 1 1 0 15H263.5v37.237a7.5 7.5 0 0 1-7.5 7.5Z"></path>
  <path fill="#ffe966" d="M278.31 380.71a7.5 7.5 0 0 1-7.5-7.5v-14.87h-37.122a7.5 7.5 0 0 1-7.5-7.5v-22.367a7.5 7.5 0 0 1 15 0v14.868h37.123a7.5 7.5 0 0 1 7.5 7.5v22.369a7.5 7.5 0 0 1-7.5 7.5Z"></path>
  <path fill="#ff8e66" d="M394.59 410.11c-.08.19-.17.38-.26.57-.45.96-.93 1.91-1.42 2.86a112.792 112.792 0 0 1-9.96 15.84 456.285 456.285 0 0 1-125.81 17.65c-.39 0-.77 0-1.16-.01a456.18 456.18 0 0 1-127.57-18.49 113.788 113.788 0 0 1-7.76-12.11c-1.31-2.36-2.54-4.76-3.67-7.19a441.578 441.578 0 0 0 139.04 22.79 440.523 440.523 0 0 0 138.57-21.91Z"></path>
  <path fill="#ff7c4e" d="M394.59 410.11c-.08.19-.17.38-.26.57-.45.96-.93 1.91-1.42 2.86a112.792 112.792 0 0 1-9.96 15.84q-18.57 5.325-37.49 9.04a115.274 115.274 0 0 0 7.49-9.04q3.405-4.53 6.29-9.3 17.835-4.23 35.35-9.97Z"></path>
  <path fill="#f66" d="M404.74 369.43a102.245 102.245 0 0 1-2.08 16.75q-.735 3.615-1.74 7.16a45.335 45.335 0 0 1-41.73-45.25 54.21 54.21 0 0 1 2.11-13.74c1.12-3.52 6.02-18.98 21.46-26.1a42.785 42.785 0 0 1 3.99-1.64 105.58 105.58 0 0 1 17.99 62.82Z"></path>
  <path fill="#ff4e4e" d="M386.75 306.61a42.785 42.785 0 0 0-3.99 1.64 38.194 38.194 0 0 0-16.727 15.42 103.766 103.766 0 0 1 8.707 45.76 101.89 101.89 0 0 1-1.187 11.81 45.035 45.035 0 0 0 27.367 12.1q1.005-3.54 1.74-7.16a102.245 102.245 0 0 0 2.08-16.75 105.58 105.58 0 0 0-17.99-62.82Z"></path>
  <path fill="#f66" d="M152.8 348.09a45.326 45.326 0 0 1-41.72 45.25c-.67-2.37-1.25-4.75-1.75-7.16a103.197 103.197 0 0 1-2.07-16.75c-.06-1.38-.09-2.77-.09-4.15a106.013 106.013 0 0 1 18.64-59.51c1.18.84 2.32 1.67 3.42 2.47 7.12 5.17 16.94 12.5 21.38 25.85a54.725 54.725 0 0 1 2.19 14Z"></path>
  <path fill="#ff4e4e" d="M150.61 334.09c-4.44-13.35-14.26-20.68-21.38-25.85-1.1-.8-2.24-1.63-3.42-2.47a112.534 112.534 0 0 0-7.398 12.663 42.669 42.669 0 0 1 9.383 15.657 54.725 54.725 0 0 1 2.19 14 45.365 45.365 0 0 1-20.655 38.092c.5 2.409 1.08 4.788 1.75 7.158a45.326 45.326 0 0 0 41.72-45.25 54.725 54.725 0 0 0-2.19-14Z"></path>
  <rect width="172.781" height="26.997" x="169.609" y="477.878" fill="#ff8e66" rx="13.498"></rect>
  <path fill="#ff7c4e" d="M328.892 477.878h-30a13.499 13.499 0 0 1 0 26.997h30a13.499 13.499 0 0 0 0-26.997Z"></path>
</svg>
