 <svg  version="1.0" xmlns="http://www.w3.org/2000/svg"  width="900.000000pt" height="900.000000pt" viewBox="0 0 900.000000 900.000000"  preserveAspectRatio="xMidYMid meet">  <g transform="translate(0.000000,900.000000) scale(0.100000,-0.100000)" fill="#ff0000" stroke="none"> <path d="M175 8978 c-7 -15 -20 -24 -40 -26 -32 -4 -92 -61 -101 -97 -2 -11 -3 -1077 -2 -2370 l3 -2350 22 -35 c13 -19 27 -44 33 -55 16 -33 32 -50 99 -98 36 -27 74 -47 90 -47 14 -1 37 -7 51 -15 21 -12 275 -14 1760 -15 1465 -1 1738 -3 1753 -15 10 -7 27 -30 38 -49 18 -35 19 -74 19 -1304 0 -973 -3 -1271 -12 -1280 -9 -9 -404 -12 -1714 -12 -1500 0 -1703 -2 -1714 -15 -7 -8 -21 -15 -32 -15 -19 0 -77 -22 -108 -41 -8 -5 -25 -13 -38 -19 -12 -5 -54 -42 -92 -82 -64 -66 -82 -96 -141 -223 -11 -23 -15 -104 -17 -349 -2 -176 -1 -329 2 -341 9 -36 69 -95 98 -95 14 0 31 -7 38 -15 11 -13 281 -15 2316 -15 1328 0 2305 4 2308 9 3 5 23 12 43 16 42 7 140 67 163 99 57 78 81 132 90 200 5 41 10 782 10 1758 0 1170 3 1695 11 1715 6 15 20 38 31 50 l21 23 1293 0 c1049 0 1294 -2 1302 -13 8 -9 11 -512 11 -1726 0 -1530 2 -1715 16 -1731 8 -9 15 -25 15 -34 0 -10 13 -38 30 -63 16 -24 30 -48 30 -52 0 -18 149 -149 191 -168 98 -45 121 -53 157 -53 20 0 50 -7 66 -15 23 -12 78 -15 296 -15 148 0 270 3 272 8 2 4 19 15 38 25 19 10 44 30 55 45 20 27 20 43 20 2382 l0 2355 -32 61 c-33 62 -143 174 -173 174 -8 0 -28 7 -45 16 -27 15 -195 16 -1783 14 l-1754 -1 -23 24 c-13 13 -29 36 -35 51 -7 18 -10 439 -10 1297 l0 1269 26 10 c16 6 635 10 1696 10 1196 0 1682 3 1707 11 191 59 308 158 390 329 l36 75 0 341 c0 379 1 373 -67 420 l-39 27 -2332 -2 c-1429 -1 -2336 -6 -2342 -12 -5 -5 -17 -9 -27 -9 -29 0 -98 -41 -142 -85 -46 -46 -57 -61 -86 -124 -20 -43 -20 -56 -20 -1788 0 -1617 -1 -1746 -17 -1771 -9 -15 -26 -37 -37 -49 l-19 -23 -1299 0 -1298 0 -10 24 c-5 15 -9 712 -9 1741 -1 1515 -3 1719 -16 1738 -8 12 -15 28 -15 35 0 8 -14 34 -30 59 -17 24 -30 48 -30 52 0 4 -33 39 -73 78 -87 85 -178 131 -281 144 -65 8 -92 22 -80 41 3 4 -109 8 -248 8 -253 0 -253 0 -263 -22z"/> <path d="M2450 6951 c-8 -6 -36 -11 -61 -11 -29 0 -51 -6 -59 -15 -7 -8 -20 -15 -30 -15 -44 0 -197 -140 -226 -207 -7 -17 -18 -34 -24 -38 -5 -3 -10 -18 -10 -33 0 -15 -7 -36 -15 -46 -21 -28 -21 -253 0 -280 8 -11 15 -32 15 -47 0 -15 5 -31 10 -34 6 -4 17 -21 26 -38 46 -96 72 -128 139 -171 126 -81 235 -105 390 -86 145 18 286 110 361 236 58 98 75 162 76 279 0 101 -2 116 -32 190 -51 126 -138 221 -256 280 -47 24 -85 36 -110 35 -22 0 -70 2 -109 5 -42 4 -76 2 -85 -4z"/> <path d="M6385 6950 c-11 -5 -39 -9 -61 -9 -24 -1 -47 -7 -54 -16 -7 -8 -18 -15 -26 -15 -23 0 -108 -62 -162 -119 -48 -51 -112 -162 -112 -195 0 -7 -7 -27 -15 -42 -10 -19 -15 -57 -15 -109 0 -52 5 -90 15 -109 8 -15 15 -35 15 -44 0 -17 29 -78 61 -127 10 -16 23 -39 28 -50 20 -44 124 -125 206 -159 103 -44 308 -40 405 6 178 86 264 195 306 388 22 102 17 161 -24 280 -55 162 -241 321 -375 321 -23 -1 -71 1 -107 4 -36 2 -74 0 -85 -5z"/> <path d="M2354 3025 c-10 -8 -26 -15 -35 -15 -9 0 -35 -13 -57 -30 -23 -16 -45 -30 -50 -30 -16 0 -123 -121 -137 -154 -8 -19 -19 -37 -25 -41 -5 -3 -10 -16 -10 -28 0 -12 -7 -35 -15 -51 -20 -39 -20 -240 0 -276 8 -14 14 -37 15 -51 0 -15 7 -32 15 -39 8 -7 15 -18 15 -26 0 -7 6 -19 13 -26 6 -7 19 -26 27 -42 15 -28 70 -86 120 -124 52 -40 161 -75 252 -80 236 -13 440 115 528 333 29 73 32 89 32 190 -1 94 -4 119 -26 174 -48 120 -90 176 -186 248 -104 77 -124 83 -300 83 -122 0 -160 -3 -176 -15z"/> <path d="M6294 3025 c-10 -8 -26 -15 -35 -15 -9 0 -35 -13 -57 -30 -23 -16 -46 -30 -51 -30 -34 0 -181 -214 -181 -264 0 -7 -7 -27 -15 -42 -10 -19 -15 -57 -15 -109 0 -52 5 -90 15 -109 8 -15 15 -35 15 -43 0 -17 47 -113 82 -168 60 -93 183 -172 306 -196 67 -13 210 -7 253 9 92 37 119 49 154 76 112 83 172 179 214 342 24 92 0 233 -59 349 -42 83 -177 204 -246 221 -14 4 -27 10 -30 15 -3 5 -78 9 -168 9 -127 0 -166 -3 -182 -15z"/> </g> </svg> 