<?xml version="1.0" encoding="UTF-8"?>
<svg version="1.1" xmlns="http://www.w3.org/2000/svg" width="512" height="512">
<path d="M0 0 C10.59968141 5.50533753 19.51897702 12.84139014 28.1875 21 C28.84105469 21.5775 29.49460937 22.155 30.16796875 22.75 C60.06309635 50.36446838 72.32932478 96.72202028 74.1875 136 C72.5375 136.33 70.8875 136.66 69.1875 137 C69.5175 140.3 69.8475 143.6 70.1875 147 C71.0846875 146.20078125 71.981875 145.4015625 72.90625 144.578125 C79.58046155 138.68608294 86.328676 133.02966541 93.5 127.75 C95.47943782 126.26950063 97.45684333 124.78633104 99.43359375 123.30224609 C100.95038796 122.17605173 102.48897188 121.07931591 104.03125 119.98828125 C111.01954687 114.53696739 114.16251584 107.66452929 118.01074219 99.88671875 C123.80961644 88.37874873 131.348943 79.65451844 143.1875 74 C143.95320313 73.62488281 144.71890625 73.24976562 145.5078125 72.86328125 C155.98062921 68.21445667 167.0867328 66.73946795 178.4375 66.5625 C179.25984131 66.54026367 180.08218262 66.51802734 180.92944336 66.49511719 C186.59266734 66.51642308 186.59266734 66.51642308 189.296875 68.71484375 C190.4491182 71.67125723 190.31519552 73.04156867 189.1875 76 C187.47265625 77.66796875 187.47265625 77.66796875 185.25 79.1875 C163.42096017 95.32650575 152.98814479 119.18593483 144.1875 144 C135.2017803 169.23151956 123.8089814 190.65451077 105.1875 210 C104.29998047 210.98226562 104.29998047 210.98226562 103.39453125 211.984375 C98.16020376 217.61935472 91.70995698 221.977058 85.1875 226 C84.5275 226 83.8675 226 83.1875 226 C82.960625 227.216875 82.73375 228.43375 82.5 229.6875 C81.10887325 236.04403536 78.62364681 241.98401914 76.1875 248 C76.868125 248.24878906 77.54875 248.49757812 78.25 248.75390625 C89.93144891 253.70920173 99.93993364 261.45253823 109.1875 270 C109.73680176 270.50015625 110.28610352 271.0003125 110.85205078 271.515625 C128.76846824 287.98188857 142.91164048 311.18896146 144.36450195 336.02587891 C144.66814009 351.88522566 144.28340593 366.6412068 140.1875 382 C140.01621582 382.69351562 139.84493164 383.38703125 139.66845703 384.1015625 C129.51685379 425.13705381 105.55976288 462.87984197 81.1875 496.875 C80.64746338 497.63055176 80.10742676 498.38610352 79.55102539 499.16455078 C79.03918701 499.8707959 78.52734863 500.57704102 78 501.3046875 C77.55269531 501.92327637 77.10539062 502.54186523 76.64453125 503.17919922 C72.10950687 508.84645991 72.10950687 508.84645991 68.14802647 509.50615788 C66.94881534 509.5089648 65.74960421 509.51177172 64.51405334 509.5146637 C63.84446089 509.52160922 63.17486843 509.52855475 62.48498529 509.53571075 C60.24233645 509.55400045 58.00074314 509.54371195 55.75805664 509.53344727 C54.14982816 509.54050483 52.54160633 509.54924916 50.93339539 509.55955505 C46.56555861 509.58207787 42.1980837 509.57910257 37.83021092 509.57023358 C34.18447989 509.56512722 30.53881706 509.57241343 26.89309305 509.57970566 C18.29268185 509.596714 9.69244804 509.59312961 1.09204102 509.57641602 C-7.78200246 509.55949369 -16.65555407 509.57532851 -25.52954382 509.6076389 C-33.147511 509.63432576 -40.76532498 509.64161326 -48.38333422 509.63312382 C-52.9336603 509.62819192 -57.48369041 509.63042421 -62.03397942 509.65091133 C-66.31300112 509.66925435 -70.59131483 509.66332716 -74.87029839 509.63871193 C-76.44044134 509.63369956 -78.01063811 509.63720495 -79.58073807 509.64986038 C-81.72533042 509.66577846 -83.86758768 509.65085724 -86.0120697 509.62818909 C-87.21165786 509.62760278 -88.41124601 509.62701647 -89.64718533 509.62641239 C-95.15622432 508.53617946 -97.90227571 504.14526429 -100.9765625 499.734375 C-101.53569336 498.93555908 -102.09482422 498.13674316 -102.67089844 497.3137207 C-103.25387695 496.46769287 -103.83685547 495.62166504 -104.4375 494.75 C-105.05141602 493.86465576 -105.66533203 492.97931152 -106.29785156 492.06713867 C-138.32637177 445.64905367 -174.80851451 386.74604386 -165.09375 327.73828125 C-158.8044558 297.17024063 -138.18199334 272.64772583 -112.84765625 255.55078125 C-101.17773963 248 -101.17773963 248 -97.8125 248 C-101.43489395 232.90490602 -101.43489395 232.90490602 -111.0625 221.8125 C-111.99449219 221.37035156 -112.92648438 220.92820313 -113.88671875 220.47265625 C-143.81672244 205.40775453 -158.39691062 164.93569215 -168.65234375 135.76953125 C-176.78008992 112.83254339 -188.82609997 92.59493712 -208.171875 77.328125 C-210.8125 75 -210.8125 75 -211.3125 71.8125 C-210.8125 69 -210.8125 69 -208.8125 67 C-189.62825816 65.37773373 -170.73511758 68.4500436 -154.96875 80.1015625 C-147.20500864 86.71945046 -142.11983478 94.32071432 -137.58129883 103.35913086 C-133.63024246 111.18618618 -130.03580195 116.77942039 -122.8125 122 C-121.24262596 123.21435549 -119.67286945 124.42886807 -118.10571289 125.64672852 C-116.44859967 126.92891169 -114.78193277 128.19772759 -113.11328125 129.46484375 C-101.43505131 138.37744869 -101.43505131 138.37744869 -96.8125 143 C-96.71545776 141.9162207 -96.71545776 141.9162207 -96.61645508 140.81054688 C-92.50848994 96.15537905 -81.93972163 53.88493912 -49.8125 21 C-48.89210937 20.00419922 -48.89210937 20.00419922 -47.953125 18.98828125 C-36.27922205 6.61950312 -16.96601709 -8.18535912 0 0 Z " fill="#FEB134" transform="translate(266.8125,3)"/>
<path d="M0 0 C10.59968141 5.50533753 19.51897702 12.84139014 28.1875 21 C28.84105469 21.5775 29.49460937 22.155 30.16796875 22.75 C60.06309635 50.36446838 72.32932478 96.72202028 74.1875 136 C72.5375 136.33 70.8875 136.66 69.1875 137 C69.5175 140.3 69.8475 143.6 70.1875 147 C71.0846875 146.20078125 71.981875 145.4015625 72.90625 144.578125 C79.58046155 138.68608294 86.328676 133.02966541 93.5 127.75 C95.47943782 126.26950063 97.45684333 124.78633104 99.43359375 123.30224609 C100.95038796 122.17605173 102.48897188 121.07931591 104.03125 119.98828125 C111.01954687 114.53696739 114.16251584 107.66452929 118.01074219 99.88671875 C123.80961644 88.37874873 131.348943 79.65451844 143.1875 74 C143.95320313 73.62488281 144.71890625 73.24976562 145.5078125 72.86328125 C155.98062921 68.21445667 167.0867328 66.73946795 178.4375 66.5625 C179.25984131 66.54026367 180.08218262 66.51802734 180.92944336 66.49511719 C186.59266734 66.51642308 186.59266734 66.51642308 189.296875 68.71484375 C190.4491182 71.67125723 190.31519552 73.04156867 189.1875 76 C187.47265625 77.66796875 187.47265625 77.66796875 185.25 79.1875 C163.42096017 95.32650575 152.98814479 119.18593483 144.1875 144 C135.2017803 169.23151956 123.8089814 190.65451077 105.1875 210 C104.29998047 210.98226562 104.29998047 210.98226562 103.39453125 211.984375 C98.16020376 217.61935472 91.70995698 221.977058 85.1875 226 C84.5275 226 83.8675 226 83.1875 226 C82.960625 227.216875 82.73375 228.43375 82.5 229.6875 C81.10887325 236.04403536 78.62364681 241.98401914 76.1875 248 C76.868125 248.24878906 77.54875 248.49757812 78.25 248.75390625 C89.93144891 253.70920173 99.93993364 261.45253823 109.1875 270 C109.73680176 270.50015625 110.28610352 271.0003125 110.85205078 271.515625 C128.76846824 287.98188857 142.91164048 311.18896146 144.36450195 336.02587891 C144.66814009 351.88522566 144.28340593 366.6412068 140.1875 382 C140.01621582 382.69351562 139.84493164 383.38703125 139.66845703 384.1015625 C129.51685379 425.13705381 105.55976288 462.87984197 81.1875 496.875 C80.64746338 497.63055176 80.10742676 498.38610352 79.55102539 499.16455078 C79.03918701 499.8707959 78.52734863 500.57704102 78 501.3046875 C77.55269531 501.92327637 77.10539062 502.54186523 76.64453125 503.17919922 C72.10950687 508.84645991 72.10950687 508.84645991 68.14802647 509.50615788 C66.94881534 509.5089648 65.74960421 509.51177172 64.51405334 509.5146637 C63.84446089 509.52160922 63.17486843 509.52855475 62.48498529 509.53571075 C60.24233645 509.55400045 58.00074314 509.54371195 55.75805664 509.53344727 C54.14982816 509.54050483 52.54160633 509.54924916 50.93339539 509.55955505 C46.56555861 509.58207787 42.1980837 509.57910257 37.83021092 509.57023358 C34.18447989 509.56512722 30.53881706 509.57241343 26.89309305 509.57970566 C18.29268185 509.596714 9.69244804 509.59312961 1.09204102 509.57641602 C-7.78200246 509.55949369 -16.65555407 509.57532851 -25.52954382 509.6076389 C-33.147511 509.63432576 -40.76532498 509.64161326 -48.38333422 509.63312382 C-52.9336603 509.62819192 -57.48369041 509.63042421 -62.03397942 509.65091133 C-66.31300112 509.66925435 -70.59131483 509.66332716 -74.87029839 509.63871193 C-76.44044134 509.63369956 -78.01063811 509.63720495 -79.58073807 509.64986038 C-81.72533042 509.66577846 -83.86758768 509.65085724 -86.0120697 509.62818909 C-87.21165786 509.62760278 -88.41124601 509.62701647 -89.64718533 509.62641239 C-95.15622432 508.53617946 -97.90227571 504.14526429 -100.9765625 499.734375 C-101.53569336 498.93555908 -102.09482422 498.13674316 -102.67089844 497.3137207 C-103.25387695 496.46769287 -103.83685547 495.62166504 -104.4375 494.75 C-105.05141602 493.86465576 -105.66533203 492.97931152 -106.29785156 492.06713867 C-138.32637177 445.64905367 -174.80851451 386.74604386 -165.09375 327.73828125 C-158.8044558 297.17024063 -138.18199334 272.64772583 -112.84765625 255.55078125 C-101.17773963 248 -101.17773963 248 -97.8125 248 C-101.43489395 232.90490602 -101.43489395 232.90490602 -111.0625 221.8125 C-111.99449219 221.37035156 -112.92648438 220.92820313 -113.88671875 220.47265625 C-143.81672244 205.40775453 -158.39691062 164.93569215 -168.65234375 135.76953125 C-176.78008992 112.83254339 -188.82609997 92.59493712 -208.171875 77.328125 C-210.8125 75 -210.8125 75 -211.3125 71.8125 C-210.8125 69 -210.8125 69 -208.8125 67 C-189.62825816 65.37773373 -170.73511758 68.4500436 -154.96875 80.1015625 C-147.20500864 86.71945046 -142.11983478 94.32071432 -137.58129883 103.35913086 C-133.63024246 111.18618618 -130.03580195 116.77942039 -122.8125 122 C-121.24262596 123.21435549 -119.67286945 124.42886807 -118.10571289 125.64672852 C-116.44859967 126.92891169 -114.78193277 128.19772759 -113.11328125 129.46484375 C-101.43505131 138.37744869 -101.43505131 138.37744869 -96.8125 143 C-96.71545776 141.9162207 -96.71545776 141.9162207 -96.61645508 140.81054688 C-92.50848994 96.15537905 -81.93972163 53.88493912 -49.8125 21 C-48.89210937 20.00419922 -48.89210937 20.00419922 -47.953125 18.98828125 C-36.27922205 6.61950312 -16.96601709 -8.18535912 0 0 Z M-93.8125 227 C-91.5025 233.93 -89.1925 240.86 -86.8125 248 C-86.8125 249.65 -86.8125 251.3 -86.8125 253 C-88.38208008 254.45043945 -88.38208008 254.45043945 -90.58203125 255.61328125 C-91.38326416 256.05236816 -92.18449707 256.49145508 -93.01000977 256.94384766 C-93.87295654 257.39550293 -94.73590332 257.8471582 -95.625 258.3125 C-97.38262674 259.28077925 -99.13785325 260.25342849 -100.890625 261.23046875 C-101.74205078 261.70274902 -102.59347656 262.1750293 -103.47070312 262.66162109 C-112.14335913 267.61819952 -119.57262368 274.17282022 -126.8125 281 C-127.56273437 281.67417969 -128.31296875 282.34835937 -129.0859375 283.04296875 C-144.9634188 297.88980653 -155.05648687 319.06966348 -156.1953125 340.75390625 C-156.57683355 353.67156441 -155.15908031 365.55150275 -151.8125 378 C-151.47005208 379.36979167 -151.12760417 380.73958333 -150.78515625 382.109375 C-141.60355643 417.16103701 -122.25378145 451.96861915 -100.79240417 480.99067688 C-99.24569167 483.34157738 -98.28753152 485.18755053 -97.25444031 487.73791504 C-95.00298275 492.55677708 -92.43806619 496.22852792 -87.8125 499 C-77.57752908 501.80168892 -66.41805371 501.06983128 -55.89647055 500.91608787 C-51.63787946 500.86663865 -47.37963832 500.89340545 -43.12088013 500.90864563 C-35.97334184 500.92217507 -28.82816747 500.87481431 -21.68115234 500.79077148 C-13.43472433 500.6945441 -5.19255092 500.69469383 3.05418026 500.74641579 C11.01195918 500.79411258 18.96818788 500.77375489 26.92589951 500.72260475 C30.30168156 500.70206397 33.67621188 500.70501249 37.05197525 500.72723961 C41.03150304 500.75034019 45.00622648 500.71353869 48.98493576 500.63169289 C50.4387714 500.61114942 51.89305928 500.61063482 53.34687805 500.63233948 C59.53704216 500.71406339 64.30630821 500.74654235 68.98771286 496.40021706 C71.2954405 493.35945678 73.26640943 490.29540918 75.1875 487 C76.34823762 485.30391955 77.51910728 483.61465156 78.70703125 481.9375 C79.80991535 480.2951653 80.90748736 478.64925218 82 477 C82.59474121 476.10265137 83.18948242 475.20530273 83.80224609 474.28076172 C110.85539895 433.15737712 142.44794552 379.66157939 132.99609375 328.23046875 C128.41863411 309.94274351 119.34162965 295.29217899 106.1875 282 C105.22263672 280.94425781 105.22263672 280.94425781 104.23828125 279.8671875 C93.32205907 268.16954378 79.18221018 260.39010469 65.1875 253 C66.1875 245 66.1875 245 72.1875 227 C17.4075 227 -37.3725 227 -93.8125 227 Z " fill="#4F2261" transform="translate(266.8125,3)"/>
<path d="M0 0 C29.89536673 13.83101501 49.6037958 41.09252143 61.29296875 71.12890625 C67.84230897 88.983516 72.66848763 109.30549405 71.98046875 128.37890625 C73.96046875 128.37890625 75.94046875 128.37890625 77.98046875 128.37890625 C78.88528069 133.53710763 79.88807879 139.40044918 76.9140625 144.04394531 C74.39972553 146.90749575 71.53837545 149.3719754 68.703125 151.91015625 C53.80874136 165.31549031 44.38834939 184.08368589 36.98046875 202.37890625 C35.98992757 204.71642009 34.98585075 207.04771349 33.98046875 209.37890625 C32.99046875 209.04890625 32.00046875 208.71890625 30.98046875 208.37890625 C31.3671875 207.69828125 31.75390625 207.01765625 32.15234375 206.31640625 C39.58530232 192.4808002 42.15772832 177.82853682 42.16796875 162.19140625 C42.18021484 161.22654297 42.19246094 160.26167969 42.20507812 159.26757812 C42.27270855 125.42982275 23.59770371 90.08161027 3.09521484 64.02758789 C1.98046875 62.37890625 1.98046875 62.37890625 1.98046875 60.37890625 C-0.65953125 60.37890625 -3.29953125 60.37890625 -6.01953125 60.37890625 C-6.44383423 61.2591748 -6.44383423 61.2591748 -6.87670898 62.15722656 C-7.9185321 64.18256096 -9.04231659 66.03287172 -10.3046875 67.92578125 C-10.97008545 68.93294189 -10.97008545 68.93294189 -11.64892578 69.96044922 C-12.12185059 70.67604004 -12.59477539 71.39163086 -13.08203125 72.12890625 C-34.99140841 105.72999567 -52.4060997 143.06595007 -44.33203125 184.06640625 C-42.40300933 193.08323613 -39.13478165 201.15273502 -35.01953125 209.37890625 C-42.22629388 209.58909886 -49.43237738 209.74817199 -56.64160442 209.8452158 C-59.99119594 209.89184338 -63.33707927 209.95984725 -66.68579102 210.05786133 C-93.61819662 210.82592434 -93.61819662 210.82592434 -102.74047852 202.74291992 C-103.86860962 201.57273315 -103.86860962 201.57273315 -105.01953125 200.37890625 C-106.26084294 199.31278151 -107.50289151 198.24751333 -108.74609375 197.18359375 C-109.72607928 196.22092016 -110.69258888 195.2443192 -111.64453125 194.25390625 C-112.1768335 193.70589355 -112.70913574 193.15788086 -113.25756836 192.59326172 C-130.77125593 174.12845141 -140.83521012 151.62770176 -148.65991211 127.70776367 C-152.9195195 114.81103472 -158.5738193 102.64154706 -165.83203125 91.12890625 C-166.23728027 90.47978271 -166.6425293 89.83065918 -167.06005859 89.16186523 C-170.78022041 83.39483614 -175.17892033 78.43677011 -179.96484375 73.5390625 C-182.01953125 71.37890625 -182.01953125 71.37890625 -182.01953125 70.37890625 C-169.17281197 71.03212926 -156.35732199 76.24248586 -147.63671875 85.88671875 C-142.87189347 91.4397441 -139.83828323 97.8403746 -136.55859375 104.33398438 C-132.03810335 112.99825765 -126.45293397 118.51903697 -118.70703125 124.31640625 C-117.563289 125.18161382 -116.4200644 126.04750609 -115.27734375 126.9140625 C-114.72208008 127.33316895 -114.16681641 127.75227539 -113.59472656 128.18408203 C-89.70945407 146.30164613 -66.89958981 166.73390251 -54.01953125 194.37890625 C-54.01953125 195.03890625 -54.01953125 195.69890625 -54.01953125 196.37890625 C-51.37953125 195.05890625 -48.73953125 193.73890625 -46.01953125 192.37890625 C-50.7217082 174.98085153 -64.57127441 159.82716309 -77.01953125 147.37890625 C-79.73538742 107.21985265 -67.75778773 60.29450402 -41.32421875 29.125 C-31.81756603 18.32824369 -21.58853487 9.36527155 -9.01953125 2.37890625 C-7.52873047 1.46431641 -7.52873047 1.46431641 -6.0078125 0.53125 C-3.01953125 -0.62109375 -3.01953125 -0.62109375 0 0 Z " fill="#E16315" transform="translate(258.01953125,10.62109375)"/>
<path d="M0 0 C11.88 0 23.76 0 36 0 C32.5 10.1875 32.5 10.1875 31.39257812 13.37182617 C31.10833984 14.21205322 30.82410156 15.05228027 30.53125 15.91796875 C30.23798828 16.77156982 29.94472656 17.6251709 29.64257812 18.50463867 C28.97318827 21.10411957 28.88280982 23.32764529 29 26 C29.56283691 26.30591064 30.12567383 26.61182129 30.70556641 26.92700195 C61.64856269 43.86146629 85.87388475 64.72588878 96.45703125 99.42578125 C106.6483754 147.74301717 78.48654383 199.62239553 53.27148438 238.67724609 C34.43500384 267.56499616 34.43500384 267.56499616 30 272 C27.55169574 272.08843793 25.13179401 272.11528752 22.68359375 272.09765625 C21.95253922 272.0962413 21.22148468 272.09482635 20.46827698 272.09336853 C18.12464368 272.08775408 15.78110461 272.07519922 13.4375 272.0625 C11.85221492 272.05748686 10.26692834 272.05292363 8.68164062 272.04882812 C4.7877239 272.03777997 0.89387795 272.02050572 -3 272 C-2.71503662 271.18269409 -2.71503662 271.18269409 -2.42431641 270.34887695 C-2.15280762 269.56988037 -1.88129883 268.79088379 -1.6015625 267.98828125 C-1.13762085 266.6573645 -1.13762085 266.6573645 -0.66430664 265.29956055 C0.04398322 263.26387194 0.75045224 261.2275491 1.45532227 259.19067383 C3.41915343 253.51893334 5.4060415 247.85743326 7.44140625 242.2109375 C16.12487781 217.92590026 22.97797011 193.35146893 27.4375 167.9375 C27.5574231 167.25450836 27.67734619 166.57151672 27.80090332 165.86782837 C30.50469523 150.24999706 32.37853451 134.87061873 32.3125 119 C32.31100952 118.30721954 32.30951904 117.61443909 32.3079834 116.90066528 C32.26707045 106.28024362 31.61012107 96.31725967 29 86 C28.70996094 84.74058594 28.41992188 83.48117187 28.12109375 82.18359375 C23.33122078 62.643317 14.29962116 39.81405737 -1.80078125 26.72265625 C-4 24 -4 24 -4.12109375 20.0390625 C-3.92145856 18.56361303 -3.69266296 17.09186646 -3.4375 15.625 C-3.33630859 14.89539063 -3.23511719 14.16578125 -3.13085938 13.4140625 C-2.44251062 8.74163461 -1.31870967 4.61548385 0 0 Z " fill="#FEC86E" transform="translate(303,230)"/>
<path d="M0 0 C11.88 0 23.76 0 36 0 C36.99 4.62 37.98 9.24 39 14 C39.5878125 16.660625 39.5878125 16.660625 40.1875 19.375 C40.4223501 22.33219407 40.35121992 23.51841036 38.58984375 25.93359375 C37.21889724 27.24457839 35.81313941 28.51969564 34.3828125 29.765625 C12.69803915 50.09954362 4.75556605 84.63043533 3.7109375 113.01953125 C2.79567927 150.26797947 11.04991744 186.55401001 22 222 C22.36488525 223.20487061 22.72977051 224.40974121 23.10571289 225.65112305 C26.17280401 235.70895725 29.66657759 245.57666182 33.3125 255.4375 C34.13619397 257.6731032 34.95877685 259.90910349 35.77958679 262.14576721 C36.28409115 263.51977072 36.79037786 264.89312143 37.29866028 266.26573181 C39 270.88871071 39 270.88871071 39 272 C11.33488319 274.97150976 11.33488319 274.97150976 3.28857422 270.48974609 C-1.17191619 266.36449088 -3.87037938 261.20799619 -6.54736328 255.81445312 C-8.5305204 251.97212787 -10.91121822 248.45370696 -13.31054688 244.86181641 C-33.82544259 213.91833135 -52.2551094 179.5655146 -60 143 C-60.18256348 142.15244141 -60.36512695 141.30488281 -60.55322266 140.43164062 C-65.85429394 113.94044556 -60.37745058 90.75131043 -45.9375 68.4375 C-33.64975408 51.42044981 -17.53229362 39.71190143 0.69921875 29.8125 C4.00453227 28.05889872 4.00453227 28.05889872 7 26 C6.43748554 19.79097968 4.99646082 14.36872011 2.9375 8.5 C1.968125 5.695 0.99875 2.89 0 0 Z " fill="#FEC86E" transform="translate(173,230)"/>
<path d="M0 0 C0.66 0 1.32 0 2 0 C3.73252036 2.48700503 5.31905846 4.96645424 6.875 7.5625 C7.35533691 8.35809326 7.83567383 9.15368652 8.33056641 9.97338867 C16.66266495 23.97179818 24.91916124 38.4647605 30 54 C30.54720703 55.60681641 30.54720703 55.60681641 31.10546875 57.24609375 C38.24918558 79.14145687 38.8101773 102.98821229 29.3984375 124.29296875 C27.15873454 128.62848314 24.50009672 133.74995164 20 136 C15.38 136 10.76 136 6 136 C6 103.66 6 71.32 6 38 C2.7 38 -0.6 38 -4 38 C-4 70.34 -4 102.68 -4 136 C-18 136 -18 136 -23 132 C-35.36321362 116.95641486 -35.37816921 94.38230295 -34 76 C-30.72101938 51.47460742 -18.13505185 27.89067557 -5 7.3125 C-4.53102295 6.57491455 -4.0620459 5.8373291 -3.57885742 5.07739258 C-2.44344548 3.34580072 -1.22903234 1.66644837 0 0 Z " fill="#B2D14C" transform="translate(255,84)"/>
<path d="M0 0 C12.84671928 0.65322301 25.66220926 5.86357961 34.3828125 15.5078125 C39.14763778 21.06083785 42.18124802 27.46146835 45.4609375 33.95507812 C49.9814279 42.6193514 55.56659728 48.14013072 63.3125 53.9375 C64.45624225 54.80270757 65.59946685 55.66859984 66.7421875 56.53515625 C67.57508301 57.16381592 67.57508301 57.16381592 68.42480469 57.80517578 C92.31007718 75.92273988 115.11994144 96.35499626 128 124 C128 124.66 128 125.32 128 126 C130.475 125.01 130.475 125.01 133 124 C133.65907418 125.1802026 134.3014948 126.36970734 134.9375 127.5625 C135.47697266 128.55443359 135.47697266 128.55443359 136.02734375 129.56640625 C137.26594485 132.66539616 137.56726604 135.70145594 138 139 C131.40279141 139.23031129 124.80663689 139.38666909 118.20629883 139.49438477 C115.96664705 139.53933569 113.72725468 139.60052145 111.48852539 139.67895508 C88.96091263 140.44779843 88.96091263 140.44779843 79.43725586 132.36401367 C78.63296143 131.58388916 77.82866699 130.80376465 77 130 C76.33427979 129.43321533 75.66855957 128.86643066 74.98266602 128.2824707 C73.35826512 126.87802867 71.862438 125.42254942 70.375 123.875 C69.84269775 123.3269873 69.31039551 122.77897461 68.76196289 122.21435547 C51.24827532 103.74954516 41.18432113 81.24879551 33.35961914 57.32885742 C29.10001175 44.43212847 23.44571195 32.26264081 16.1875 20.75 C15.78225098 20.10087646 15.37700195 19.45175293 14.95947266 18.78295898 C11.23931084 13.01592989 6.84061092 8.05786386 2.0546875 3.16015625 C0 1 0 1 0 0 Z " fill="#B2D14C" transform="translate(76,81)"/>
<path d="M0 0 C-0.78375 0.886875 -1.5675 1.77375 -2.375 2.6875 C-18.88034307 22.13745827 -29.22263898 42.95438122 -37 67.1875 C-45.22993446 92.65234465 -59.92611991 116.20989636 -81 133 C-81.62263733 133.49984406 -82.24527466 133.99968811 -82.88677979 134.51467896 C-88.77822572 138.87642346 -93.04667631 139.83664091 -100.28515625 139.5859375 C-101.22685165 139.57744781 -102.16854706 139.56895813 -103.13877869 139.56021118 C-106.11457048 139.5269141 -109.08754259 139.45168286 -112.0625 139.375 C-114.09305952 139.34486964 -116.12366198 139.31749925 -118.15429688 139.29296875 C-123.10393302 139.22720091 -128.05149034 139.1238477 -133 139 C-132.48699713 135.48217703 -131.92577204 132.34973775 -130.43359375 129.1171875 C-130.11737061 128.43116455 -129.80114746 127.7451416 -129.4753418 127.03833008 C-129.132854 126.32443115 -128.79036621 125.61053223 -128.4375 124.875 C-128.07889893 124.12436279 -127.72029785 123.37372559 -127.35083008 122.6003418 C-124.11678446 115.98444484 -120.371948 109.93166999 -116 104 C-115.61537598 103.46874512 -115.23075195 102.93749023 -114.83447266 102.39013672 C-104.46928853 88.17064582 -91.92448168 75.7322306 -78 65 C-76.8544581 64.10024358 -75.70998794 63.19912152 -74.56640625 62.296875 C-70.07813992 58.75915784 -65.58781023 55.22464087 -61.0625 51.734375 C-60.19625 51.05890625 -59.33 50.3834375 -58.4375 49.6875 C-57.69371094 49.11386719 -56.94992187 48.54023438 -56.18359375 47.94921875 C-50.5524056 42.92245151 -47.52931447 37.43666014 -44.25 30.75 C-36.93372796 16.44225964 -27.79532634 6.65857072 -12.1875 1.5625 C-7.98500198 0.31480183 -4.38356613 -0.16381039 0 0 Z " fill="#99BB2D" transform="translate(436,81)"/>
<path d="M0 0 C6.19670776 -0.81535628 10.92157137 1.72172981 16 5 C20.82854643 9.24387901 24.48968443 14.7174074 25.26325989 21.20928955 C25.3450946 23.69563072 25.33771465 26.16506857 25.29296875 28.65234375 C25.28872391 29.55247696 25.28447906 30.45261017 25.28010559 31.38002014 C25.26341816 34.23282786 25.22578497 37.08490863 25.1875 39.9375 C25.1724403 41.88084912 25.15875415 43.82420939 25.14648438 45.76757812 C25.11610895 50.51221878 25.05736982 55.25530326 25 60 C34.9 60 44.8 60 55 60 C54.96519531 57.36386719 54.93039063 54.72773438 54.89453125 52.01171875 C54.87113856 49.46005334 54.85292037 46.90839984 54.83520508 44.35668945 C54.82011359 42.58254657 54.79963809 40.80844102 54.77368164 39.03442383 C54.73731359 36.48509513 54.72027762 33.93625941 54.70703125 31.38671875 C54.69154739 30.59287277 54.67606354 29.79902679 54.66011047 28.98112488 C54.65842432 23.47051543 54.65842432 23.47051543 56.24104309 21.29048157 C58.47099536 19.65444814 59.73331018 19.62233848 62.48388672 19.61523438 C63.84077103 19.60006775 63.84077103 19.60006775 65.22506714 19.58459473 C66.20009186 19.58761597 67.17511658 19.59063721 68.1796875 19.59375 C69.18460236 19.58291382 70.18951721 19.57207764 71.22488403 19.56091309 C74.44165465 19.52659088 77.65807019 19.51104814 80.875 19.5 C85.10190446 19.48543539 89.32801533 19.45174037 93.5546875 19.40625 C95.01115189 19.41078186 95.01115189 19.41078186 96.49703979 19.41540527 C101.56599776 19.35913894 104.80140924 19.13932758 109 16 C109.66 16 110.32 16 111 16 C112.49140021 12.37802806 113.7874262 8.72433382 115 5 C118.3 5 121.6 5 125 5 C125.8159497 11.20121772 123.27386818 15.9155835 120 21 C115.50184123 26.22965546 109.64663187 29.4586037 102.74052429 30.26325989 C100.31109716 30.34420192 97.8990797 30.33810806 95.46875 30.29296875 C94.15396667 30.28660149 94.15396667 30.28660149 92.81262207 30.28010559 C90.04142177 30.2634513 87.27097664 30.22582509 84.5 30.1875 C82.60938558 30.17243599 80.71875964 30.1587506 78.828125 30.14648438 C74.21823232 30.11615613 69.60995107 30.05741175 65 30 C65 39.9 65 49.8 65 60 C67.63613281 59.96519531 70.27226562 59.93039062 72.98828125 59.89453125 C75.53994666 59.87113856 78.09160016 59.85292037 80.64331055 59.83520508 C82.41745343 59.82011359 84.19155898 59.79963809 85.96557617 59.77368164 C88.51490487 59.73731359 91.06374059 59.72027762 93.61328125 59.70703125 C94.40712723 59.69154739 95.20097321 59.67606354 96.01887512 59.66011047 C101.52948457 59.65842432 101.52948457 59.65842432 103.70951843 61.24104309 C105.34555186 63.47099536 105.37766152 64.73331018 105.38476562 67.48388672 C105.39487671 68.38847626 105.40498779 69.2930658 105.41540527 70.22506714 C105.41238403 71.20009186 105.40936279 72.17511658 105.40625 73.1796875 C105.41708618 74.18460236 105.42792236 75.18951721 105.43908691 76.22488403 C105.47340912 79.44165465 105.48895186 82.65807019 105.5 85.875 C105.51456461 90.10190446 105.54825963 94.32801533 105.59375 98.5546875 C105.59072876 99.52566376 105.58770752 100.49664001 105.58459473 101.49703979 C105.64086106 106.56599776 105.86067242 109.80140924 109 114 C109 114.66 109 115.32 109 116 C112.62197194 117.49140021 116.27566618 118.7874262 120 120 C120 123.3 120 126.6 120 130 C112.45887656 129.76059926 107.72666284 127.97052095 102 123 C96.02606664 116.38652146 94.7014211 110.25658725 94.8046875 101.54296875 C94.8075174 100.64000565 94.81034729 99.73704254 94.81326294 98.80671692 C94.82442393 95.93350766 94.84952103 93.06061445 94.875 90.1875 C94.88503507 88.23503056 94.89416 86.28255621 94.90234375 84.33007812 C94.92264512 79.55316681 94.96180149 74.77693562 95 70 C85.1 70 75.2 70 65 70 C65.05220703 73.95419922 65.05220703 73.95419922 65.10546875 77.98828125 C65.12886144 80.53994666 65.14707963 83.09160016 65.16479492 85.64331055 C65.17988641 87.41745343 65.20036191 89.19155898 65.22631836 90.96557617 C65.26268641 93.51490487 65.27972238 96.06374059 65.29296875 98.61328125 C65.30845261 99.40712723 65.32393646 100.20097321 65.33988953 101.01887512 C65.34157568 106.52948457 65.34157568 106.52948457 63.75895691 108.70951843 C61.52900464 110.34555186 60.26668982 110.37766152 57.51611328 110.38476562 C56.15922897 110.39993225 56.15922897 110.39993225 54.77493286 110.41540527 C53.79990814 110.41238403 52.82488342 110.40936279 51.8203125 110.40625 C50.31294022 110.42250427 50.31294022 110.42250427 48.77511597 110.43908691 C45.55834535 110.47340912 42.34192981 110.48895186 39.125 110.5 C34.89809554 110.51456461 30.67198467 110.54825963 26.4453125 110.59375 C24.98884811 110.58921814 24.98884811 110.58921814 23.50296021 110.58459473 C18.43400224 110.64086106 15.19859076 110.86067242 11 114 C10.34 114 9.68 114 9 114 C7.50859979 117.62197194 6.2125738 121.27566618 5 125 C1.7 125 -1.6 125 -5 125 C-4.76208431 117.50565566 -3.08297581 112.60916378 2 107 C6.94729359 102.9797972 11.58340199 99.86641047 18.10424805 99.88647461 C18.92487228 99.88655014 19.74549652 99.88662567 20.59098816 99.88670349 C21.9129998 99.89444542 21.9129998 99.89444542 23.26171875 99.90234375 C24.62040825 99.90446617 24.62040825 99.90446617 26.00654602 99.90663147 C28.90023091 99.91222999 31.79383849 99.92478219 34.6875 99.9375 C36.64908742 99.94251519 38.61067606 99.94707807 40.57226562 99.95117188 C45.38156418 99.96134813 50.19069553 99.98092387 55 100 C55 90.1 55 80.2 55 70 C52.36386719 70.03480469 49.72773438 70.06960938 47.01171875 70.10546875 C44.46005334 70.12886144 41.90839984 70.14707963 39.35668945 70.16479492 C37.58254657 70.17988641 35.80844102 70.20036191 34.03442383 70.22631836 C31.48509513 70.26268641 28.93625941 70.27972238 26.38671875 70.29296875 C25.59287277 70.30845261 24.79902679 70.32393646 23.98112488 70.33988953 C18.47051543 70.34157568 18.47051543 70.34157568 16.29048157 68.75895691 C14.65444814 66.52900464 14.62233848 65.26668982 14.61523438 62.51611328 C14.60512329 61.61152374 14.59501221 60.7069342 14.58459473 59.77493286 C14.58761597 58.79990814 14.59063721 57.82488342 14.59375 56.8203125 C14.58291382 55.81539764 14.57207764 54.81048279 14.56091309 53.77511597 C14.52659088 50.55834535 14.51104814 47.34192981 14.5 44.125 C14.48543539 39.89809554 14.45174037 35.67198467 14.40625 31.4453125 C14.40927124 30.47433624 14.41229248 29.50335999 14.41540527 28.50296021 C14.35913894 23.43400224 14.13932758 20.19859076 11 16 C11 15.34 11 14.68 11 14 C7.37802806 12.50859979 3.72433382 11.2125738 0 10 C0 6.7 0 3.4 0 0 Z " fill="#4F2161" transform="translate(196,301)"/>
<path d="M0 0 C0.66 0 1.32 0 2 0 C3.73252036 2.48700503 5.31905846 4.96645424 6.875 7.5625 C7.59550537 8.75588989 7.59550537 8.75588989 8.33056641 9.97338867 C16.66266495 23.97179818 24.91916124 38.4647605 30 54 C30.36480469 55.07121094 30.72960937 56.14242187 31.10546875 57.24609375 C38.24918558 79.14145687 38.8101773 102.98821229 29.3984375 124.29296875 C27.15873454 128.62848314 24.50009672 133.74995164 20 136 C15.38 136 10.76 136 6 136 C6 103.66 6 71.32 6 38 C4.35 38 2.7 38 1 38 C0.67 26.78 0.34 15.56 0 4 C-0.99 4.495 -0.99 4.495 -2 5 C-1.34 3.35 -0.68 1.7 0 0 Z " fill="#99BB2D" transform="translate(255,84)"/>
<path d="M0 0 C12.72186917 11.52919393 19.52270829 27.41316492 24.5 43.5 C24.75539551 44.31202881 25.01079102 45.12405762 25.27392578 45.96069336 C26.87936026 51.46689362 27.2292808 56.26798004 27 62 C23.7 62 20.4 62 17 62 C16.85304688 61.1028125 16.70609375 60.205625 16.5546875 59.28125 C13.61514822 42.92795102 7.90131245 24.31364119 -3.5625 11.8125 C-4.366875 10.884375 -5.17125 9.95625 -6 9 C-5.60225235 4.749072 -3.03762325 2.80395992 0 0 Z " fill="#52235E" transform="translate(285,53)"/>
<path d="M0 0 C3.36720387 1.39332574 4.9859524 2.9789286 7 6 C5.65383764 8.9863893 4.13362128 11.07907918 1.875 13.4375 C-9.19590581 25.92657969 -16.36891918 42.42126852 -22 58 C-26.95 56.515 -26.95 56.515 -32 55 C-26.44812453 37.37392381 -18.77615665 21.34216744 -7 7 C-6.31679687 6.11054687 -5.63359375 5.22109375 -4.9296875 4.3046875 C-3 2 -3 2 0 0 Z " fill="#52225F" transform="translate(243,27)"/>
<path d="M0 0 C4.57066877 0.54412723 8.24206194 1.26695414 12 4 C12.93809587 7.0748698 13.48344271 9.84561328 14 13 C16.21876498 23.37986586 19.12535538 32.5106918 24 42 C21.03 42 18.06 42 15 42 C13.35 37.05 11.7 32.1 10 27 C10.99 26.34 11.98 25.68 13 25 C10.55114005 15.93921817 5.02416797 7.83179124 0 0 Z " fill="#AD4C14" transform="translate(199,178)"/>
<path d="M0 0 C-0.60134766 0.78697266 -0.60134766 0.78697266 -1.21484375 1.58984375 C-9.47553582 12.84761231 -15.86227376 25.05287704 -19.83203125 38.4375 C-21 41 -21 41 -23.13671875 41.875 C-23.75160156 41.91625 -24.36648438 41.9575 -25 42 C-24.61328125 41.2471875 -24.2265625 40.494375 -23.828125 39.71875 C-20.76209037 33.46525364 -18.38606281 27.50563915 -16.75 20.75 C-16.58282471 20.0696167 -16.41564941 19.3892334 -16.2434082 18.68823242 C-15.57195377 15.847783 -15.00678886 13.06409744 -14.69921875 10.16015625 C-14.42823957 7.72943253 -14.22604864 6.12111076 -13 4 C-4.05996003 -2.02998001 -4.05996003 -2.02998001 0 0 Z " fill="#AD4B14" transform="translate(314,178)"/>
<path d="M0 0 C3.3 0 6.6 0 10 0 C10 3.3 10 6.6 10 10 C6.7 10 3.4 10 0 10 C0 6.7 0 3.4 0 0 Z " fill="#4E2162" transform="translate(271,381)"/>
<path d="M0 0 C3.3 0 6.6 0 10 0 C10 3.3 10 6.6 10 10 C6.7 10 3.4 10 0 10 C0 6.7 0 3.4 0 0 Z " fill="#4E2162" transform="translate(231,381)"/>
<path d="M0 0 C3.3 0 6.6 0 10 0 C10 3.3 10 6.6 10 10 C6.7 10 3.4 10 0 10 C0 6.7 0 3.4 0 0 Z " fill="#4E2162" transform="translate(271,341)"/>
<path d="M0 0 C3.3 0 6.6 0 10 0 C10 3.3 10 6.6 10 10 C6.7 10 3.4 10 0 10 C0 6.7 0 3.4 0 0 Z " fill="#4E2162" transform="translate(231,341)"/>
<path d="M0 0 C0.66 0.99 1.32 1.98 2 3 C1.25940724 5.84980095 0.43415416 8.39803748 -0.625 11.125 C-0.88667969 11.86621094 -1.14835937 12.60742188 -1.41796875 13.37109375 C-2.2265625 15.5078125 -2.2265625 15.5078125 -4 19 C-6.11083984 19.71826172 -6.11083984 19.71826172 -8 20 C-7.59007812 19.14277344 -7.18015625 18.28554687 -6.7578125 17.40234375 C-2.74780149 8.92734235 -2.74780149 8.92734235 0 0 Z " fill="#9F451F" transform="translate(297,200)"/>
</svg>
